<svg width="329" height="299" viewBox="0 0 329 299" fill="none" xmlns="http://www.w3.org/2000/svg">
<path d="M170.596 0C201.123 6.20621e-05 226.78 21.4634 234.106 50.5293C239.517 47.8357 245.403 45.7956 251.665 44.5488C286.991 37.5163 320.912 58.3577 327.431 91.0986C331.882 113.459 322.4 135.585 304.688 149.609C313.597 161.14 318.922 175.739 318.922 191.617C318.922 203.522 315.928 214.708 310.676 224.421C319.958 244.264 328.077 266.093 322.819 273.014C314.612 283.815 262.67 272.952 241.354 267.949C229.682 286.627 209.314 299 186.137 299C164.365 299 145.071 288.083 133.137 271.277C124.305 275.832 114.336 278.396 103.786 278.396C71.9066 278.396 45.3378 254.99 39.4111 223.961C16.2153 215.929 0.000105463 197.558 0 176.18C0.00021722 154.186 17.1616 135.374 41.4307 127.729C27.1427 112.48 21.7764 90.8241 29.4512 71.2939C40.376 43.4941 73.5873 30.5282 103.63 42.334C105.422 43.0381 107.162 43.8158 108.848 44.6592C117.955 18.6196 142.163 0.000240278 170.596 0ZM204.496 135.718C201.471 134.4 198.074 135.949 196.909 139.177C194.693 145.317 189.894 149.343 184.592 150.345C179.463 151.313 173.351 149.538 168.137 142.839C166.035 140.139 162.33 139.737 159.861 141.942C157.393 144.148 157.095 148.127 159.195 150.827C167.016 160.876 177.339 164.581 186.847 162.786C196.181 161.023 204.224 154.041 207.865 143.949C209.03 140.721 207.522 137.036 204.496 135.718ZM151.473 101.582C150.336 94.5926 143.748 89.8477 136.759 90.9844C129.769 92.1211 125.024 98.7088 126.161 105.698L128.491 120.025C129.628 127.015 136.216 131.759 143.205 130.622C150.194 129.485 154.939 122.898 153.803 115.909L151.473 101.582ZM219.288 90.5547C218.151 83.5656 211.564 78.8216 204.575 79.958C197.586 81.0947 192.841 87.6816 193.978 94.6709L196.308 108.998C197.444 115.987 204.032 120.732 211.021 119.596C218.011 118.459 222.755 111.871 221.618 104.882L219.288 90.5547Z" fill="#333743"/>
</svg>
